<?xml version="1.0" encoding="utf-8"?>
<svg xmlns="http://www.w3.org/2000/svg" viewBox="0 0 500 500" xmlns:bx="https://boxy-svg.com">
  <defs>
    <bx:export>
      <bx:file format="svg" href="#object-0"/>
      <bx:file format="svg" href="#object-1" path="Untitled 2.svg"/>
      <bx:file format="svg" href="#object-2" path="Untitled 3.svg"/>
      <bx:file format="svg" href="#object-3" path="Untitled 4.svg"/>
    </bx:export>
  </defs>
  <path d="M 386.631 88.391 L 361.283 21.105 L 124.368 20.304 L 99.02 87.419 M 386.631 155.593 L 335.118 478.23 L 150.432 477.606 L 99.02 154.619" fill="#EDEDED" style="" id="object-0"/>
  <path d="M 242.826 87.905 L 63.044 87.298 L 70.198 154.521 L 415.454 155.69 L 422.608 88.513 L 242.826 87.905 Z" fill="#EDEDED" style="" id="object-1"/>
  <path d="M 364.963 384.27 L 120.688 383.443 L 99.02 235.49 L 386.631 236.463 L 364.963 384.27 Z" style="fill: rgb(161, 192, 40);" id="object-2"/>
  <path d="M 433.236 79.564 C 430.478 76.782 426.594 75.143 422.608 75.13 L 396.851 75.043 L 374.878 16.658 C 372.833 11.293 367.416 7.644 361.283 7.622 L 124.368 6.821 C 118.235 6.8 112.817 10.415 110.774 15.765 L 88.799 74.001 L 63.044 73.914 C 58.955 73.901 55.071 75.513 52.413 78.276 C 49.655 81.039 48.326 84.858 48.734 88.587 L 55.787 155.811 C 56.503 162.696 62.737 167.975 70.095 168 L 86.55 168.056 L 95.238 222.477 C 92.479 223.136 90.026 224.562 88.086 226.563 C 85.325 229.518 84.099 233.337 84.712 237.258 L 106.38 385.211 C 107.4 391.905 113.433 396.898 120.586 396.921 L 123.038 396.929 L 136.224 479.565 C 137.245 486.165 143.379 491.06 150.432 491.085 L 335.118 491.709 C 342.272 491.733 348.304 486.878 349.325 480.286 L 362.51 397.74 L 364.963 397.749 C 372.116 397.772 378.251 392.821 379.169 386.134 L 400.836 238.231 C 401.451 234.41 400.122 230.486 397.464 227.514 C 395.523 225.501 393.07 224.059 390.31 223.379 L 398.998 169.018 L 415.454 169.073 C 422.813 169.098 429.046 163.861 429.762 156.982 L 436.815 89.805 C 437.326 86.077 435.997 82.346 433.236 79.564 Z M 256.01 34.132 C 255.704 37.572 254.681 41.584 252.228 44.156 C 250.081 46.444 246.915 47.483 242.416 47.469 C 237.919 47.454 234.547 46.294 232.093 43.897 C 229.539 41.308 228.209 37.383 227.698 34.037 L 256.01 34.132 Z M 134.486 33.721 L 213.184 33.987 C 213.799 39.533 215.741 47.092 221.464 52.943 C 226.574 58.122 233.831 60.918 242.314 60.947 C 253.148 60.984 259.589 56.608 262.96 52.987 C 268.377 47.175 269.91 39.724 270.319 34.181 L 351.063 34.454 L 366.292 74.845 L 119.36 74.009 L 134.486 33.721 Z M 322.751 464.71 L 162.899 464.17 L 152.168 396.932 L 333.483 397.545 L 322.751 464.71 Z M 352.391 370.749 L 133.26 370.008 L 115.578 248.929 L 370.175 249.791 L 352.391 370.749 Z M 361.386 222.898 L 124.266 222.097 L 115.68 168.154 L 369.869 169.015 L 361.386 222.898 Z M 402.473 142.263 L 83.178 141.183 L 78.885 100.83 L 406.562 101.938 L 402.473 142.263 Z" style="fill: rgb(255, 255, 255);" id="object-3"/>
  <path d="M 160.384 350.005 L 160.384 267.239 L 183.189 267.239 L 205.993 297.668 L 228.797 267.239 L 251.602 267.239 L 251.602 350.005 L 228.797 350.005 L 228.797 302.537 L 205.993 332.965 L 183.189 302.537 L 183.189 350.005 L 160.384 350.005 Z M 302.911 350.005 L 268.704 309.839 L 291.509 309.839 L 291.509 267.239 L 314.313 267.239 L 314.313 309.839 L 337.117 309.839 L 302.911 350.005 Z" style="fill: rgb(255, 255, 255);"/>
</svg>